<svg xmlns="http://www.w3.org/2000/svg" width="101mm" height="162.9" viewBox="0 0 101 43.1">
  <defs>
    <linearGradient id="a" x1="57.8" x2="98.6" y1="102.5" y2="123.5" gradientTransform="translate(417.9 -265.8) scale(.5498)" gradientUnits="userSpaceOnUse">
      <stop offset="0" stop-color="#c9aaa8"/>
      <stop offset="1" stop-color="#6c5042"/>
    </linearGradient>
  </defs>
  <path fill="#b85f7d" stroke="#000" stroke-linecap="square" stroke-width=".2" d="M23.3 1.9L22 3.6l-.4-.4-.9-.6c-.3-.7-.6-.7-1-.7-2.2 1.4-4.1 3-5.1 5.3l.2.8-.4.4-3.6-2c-.4-.1-2.6 1.1-1.7 1.7l4.4 2.2-2.3 2.2-.7 1.4.7 1.3.7.1c1.5-2.2 3-1.5 4.4-.5-2 3-2.1 5.8 4 8.3.7-1.4 1-4 3.2-2.1.2 2.6 2.3 5 7.5 7l1-.2 5.5.5c0 1.2 6.8 3.4 10.7 5.2l1-1.4-1.1-7.5-2.3-4.1-2.7-1.6-2.4-2.6-7.9-4-.3-4.4-1.6-1v.5h-.7l-1.3-1.2V4.8zm0 .9l.8.3-1.1.2zm-3.3 0l-1.7 2c0-1.9.9-2 1.7-2zm9.6 5.7c.4 0 1 .3 1.2.4l-.2.4c-.3 0-1.3-.5-1.1-.8h.1zm-7.2 7c.8 0 1.1.5 1 1.5L22 18l-.4-.3-.5.2v.2h-.4c0-.3-.3-.2-.5 0-1-.2-2.3-.3-.4-2 .4 0 .7-.1 1-.3.5.2.7 0 1-.2h.5zm8.2 3.4l3.3 1.5c1 2-3 5.7-5.8 1 0-1.6.7-2.3 2.5-2.5z"/>
  <path fill="#4d4d4d" d="M46.6 28.7c-.4 1-.9 2-1.6 3l2 1 1.1-1.9z"/>
  <path fill="url(#a)" stroke="#000" stroke-width=".2" d="M448-211.2v-.5l.4.2.2-.1 19.7 10zm-.6-.5c-.2 0-.5.2-1 1.3 0 .3.1.7.9.4l19.7 10 1.2-1.6-20.3-9.7c0-.8-.3-.6-.6-.5z" transform="translate(-426.4 220.2)"/>
  <path fill="#b85f7d" stroke="#000" stroke-width=".2" d="M30.3 10.8l-1 3.2-1 1.1 2.5 1a5.7 5.7 0 0 0 2-3.8c-.4-1.2-1.4-2-2.2-3L29 9.1l1.3 1.7z"/>
  <g stroke="#000">
    <path fill="none" stroke-width=".1" d="M19.9 12.1l-.8 1.1"/>
    <path fill="#a73a5f" stroke-linecap="square" stroke-width=".1" d="M20.7 5.1a.2.2 0 0 1-.2.2.2.2 0 0 1-.3-.2.2.2 0 0 1 .3-.2.2.2 0 0 1 .2.2zm-1.4 7.3a.3.3 0 0 1-.3.3.3.3 0 0 1-.3-.3.3.3 0 0 1 .3-.3.3.3 0 0 1 .3.3zm12 14a.3.3 0 0 1-.3.3.3.3 0 0 1-.3-.4.3.3 0 0 1 .3-.3.3.3 0 0 1 .4.3zM27 23.5a.3.3 0 0 1-.3.3.3.3 0 0 1-.4-.3.3.3 0 0 1 .4-.4.3.3 0 0 1 .3.4zm1.3-4.7a.3.3 0 0 1-.3.4.3.3 0 0 1-.4-.4.3.3 0 0 1 .4-.3.3.3 0 0 1 .3.3zM19.7 21a.3.3 0 0 1-.3.3.3.3 0 0 1-.4-.3.3.3 0 0 1 .4-.4.3.3 0 0 1 .3.4zm-.3-6a.3.3 0 0 1-.4.3.3.3 0 0 1-.3-.4.3.3 0 0 1 .3-.3.3.3 0 0 1 .4.3zm-5.5-2.6a.3.3 0 0 1-.3.3.3.3 0 0 1-.3-.3.3.3 0 0 1 .3-.3.3.3 0 0 1 .3.3z"/>
    <path fill="#754555" stroke-width=".2" d="M17 6.7l2.3 1.2.3-.5-2.3-1.2zm15 2.8L30.9 9l-.2.4.4.4zM20.9 6.8l1.4 1.8 7.8 4 .3-1.7-1.3-1c-2 .1-5.4-2-8.2-3.1z"/>
    <path fill="none" stroke-width=".1" d="M18.2 4.8c-.2.2-.4.5-.7.5"/>
    <path fill="#735150" stroke-width=".2" d="M42 18.6l1.1.3 1 1.7-1.6.1L41 20zM20.8 6.7C20 7.2 19.5 8 19.2 9l.8.8c.3-.5.5-1 1.1-1.3.3-.2.6 0 1 .2l.2-.1z"/>
    <path fill="#e0839a" stroke-width=".2" d="M28 21.4c-.2 3 5 5.5 7.3-.2l-1.5-.8c0 4-3.7 4.2-5.8 1zm-17.4-15v.7L14.3 9v-.5zm22.1 5.9l-.3 1.4 9 4.7c-.6-.9-1.4-1.6-1.6-2.5z"/>
  </g>
  <path fill="none" stroke="#333" stroke-width=".3" d="M14.4 8.4a5 5 0 0 1-1 2"/>
  <g stroke="#000">
    <path fill="#dd8394" stroke-width=".2" d="M16.3 15l.3.7c-1.7 2.5-.9 3.8-.2 5.1-1.6-1.4-1.8-3.2-.1-5.8zm3.5 1h-.6c-1.6 1.5-1.1 3 2.4 4.5.5-.2 1-.2 1.8.5l.4-.6-3-1.7v-.6c-.2-.3-.3-.1-.5 0-1.6-.1-2-.6-.5-2zm-7.2-3.6l-1.4.2-.8 1.3.7 1.3zm4.9-7.1l-2.1 3-.7-.6-.2-.5a9 9 0 0 1 2-2.8zm5.8-2.5l5.5 2.6v-.6L23.3 2z"/>
    <path fill="#333" stroke-width=".1" d="M12.6 10l-2.8 2.2L6.4 10a15 15 0 0 0-6.3 6.7c.5.8 1.4 1 2.2 1.4l1.2-1 .3.2c.6-.5 1.1-1.3 2-1.4.7-1 2-1.5 3.2-2l1 2c1.1 1.2 2.3 2.4 3.2 4-1 6-1.6 14 1.5 17.1 6 5.8 17 3.7 21.5.2V37c2.7-1.4 5.2-3.2 7.6-5.2l-.5-.2a46 46 0 0 1-7.8 5.2l-.4-.1c-4.1 2-8.5 3-13.5 2-9.2-2-9.3-10-7.9-19-.8-1.3-1.7-2.6-2.1-4.3l-.5-.2-.7-1.3.2-.4-.3-.4.9-.5 2.2-2.2zm-7.2 1.1L7.9 13l-1.8 1.5h-.5L3.8 16l-1.2-.8c-1.6-.1.5-2.1 2.8-4.2z"/>
    <path fill="none" stroke-width=".2" d="M9 13.8l1.3-.7M8 13l2-.8M9 7.5c.4 1 2.5-.2 2-1m-.2 0c.3.4-1 1.7-1.6.8m10.2 8.8l-6.8-3.4m3.2-4.9l3.1 1.6V9v.8l1.8.9m-7.2-2.9c.3 1-.5 1.4-1.4 1.8m30.8 11.5l1.4.6.7-1.2m-4.6-.5l.5.2.2-.2c.6.3 1.3.8 2 .8l-.5 1c-1-.1-1.7-.3-2.3-1zm.6 3.8l-3.2 4.8M26.9 17.2l19.8 9.5M23 15.7l2.6 1.3c.4.6-.3 2.6-1.3 2.3-.7-.3-1.5-.6-2.2-1.2m7-3.7h-1.5l-.4.8.6.5m-8.4-4l-1-.3c-.5 0-.9 1-.6 1.2l1.3.6m.3-1.4c0-.4-.2-1-1.5-1-.8 0-1.5.9-.8 1.9.7.7 1.4.6 2 .5l7.8 4 1-1.5c-2.6-.7-5.3-2.4-8-3.6.2-.3 0-.8-.5-.3zM18.9 4c.5 0 .8-.2 1-.5.4.4 0 .9-.3 1.4-.2 1 1.4 1.3 1.6.5.2-.7.3-1.3.7-1.8m-5.4 3.9l2 1 .7-1.4m-2-1l-.8 1.6 2.3 1 .8-1.4zm12.3 2.3l-.4-.2c-.3 0-.5.3-.6.6.1.2.3.3.5.3zm1.3.5L29 7.8c-.7-.5-1.6 1.6-1.8 1.8m-13.7 1.1l3.6 2m13-5.3l-4.8-1.1L22 4.5m-9.4 8c.9-.7.3-.9 0-1.2m0 0c.6 0 1.2 0 .9-.9h1.1l1-1.8-.9-.9m6.1-1l-3-1.5"/>
  </g>
  <path fill="#fff9e3" stroke="#000" stroke-width=".1" d="M56.3 12.6c.6 2.1 1 4.5 2 6.3.2 3.2 1.5 4.1 3.1 4.8l7-.8c2.5-1.4 3.2-3.5 2.8-6-.2-2.1-1-4.3-1.7-6.5l-7-1.9c-2.9-.1-4.8 1.6-6.2 4.1zm-10.9 7.1c.6-.7 1.1-1.3 2.3-1.3l3.2 4c-1 .4-2 1.3-2.9 2.2z"/>
  <path fill="#fbb695" stroke="#000" stroke-width=".1" d="M31.7 28.6l4.7 4.2 1.5-3.2c-1.7-.4-1.7-1.5-4.7-1.7-.8 0-1.2.3-1.5.7z"/>
  <path fill="#febe98" d="M57.7 17.8a45 45 0 0 0 10.8-5.9c1 .2 1.6 1 2.1 2.1l-1-3.5-7.1-2c-2.4.8-4.8 1.5-6.2 4.1zm-12.3 2c1-.7 1.8-.8 2.6-1l-.3-.3c-.9-.1-1.7.4-2.3 1.2z"/>
  <g stroke="#000" stroke-width=".1">
    <path fill="#de8ea7" d="M56.2 25.4l-2.7-3c-2.3-.7-5.8 1-7.2 5.6l1.4 2-.1.6 1.2 1.5 1.7-.1c.3.8.2 1.7 1 2.5h1l8.3 2.2-3.2.6c-.6 1-.8 2-.1 2.5L56.2 43h17.7a32.1 32.1 0 0 0 2.8-15.7l-1-4.3-.8-.2c1.3-3.9-2.5-2.2-5-1.6-1.7 2.1-3.8 1.2-6 1.7-.8 0-1.6.4-2.4.7-.7.5-1.2 1.1-1.6 1.8.2.2.4.4.2.9h-.8l-.7.5-1.7.5-.3-.4c.5-.8 0-1.2-.4-1.6z"/>
    <path fill="gray" d="M57.1 31.2c-3-1-8.6 1.2-2 5.5.9.4 1.6.6 2.5.7 8.1-1.2 2.8-5.4-.5-6.2z"/>
    <path fill="#c8728e" d="M53.1 34.8c.8 0-1.4-1.6-.6-2.8.3-.2.8-.9 1.4-.6.8.2 1.4 1 2 1.9.5.6 2.9-.3 4.2-.6.5.1 1 .7 1.3 1.2.2 1.3-.2 2.1-1.4 2.2l.2.6-1.5.4c-.3-1 .4-1.5 1.5-1.7.4-.1.7-1 .5-1.3-.3-1-1-.8-1.6-.4-2.1 1.3-3 .8-3.6.3L54 32.2c-1-.9-1.4.3-1.1.8.5.7 1.4 1.8 1.3 2.2v.2zM36.8 29l.6-.7.6.8 10.2 4.5 1-1.6h1.3c.2.8.2 1.6 1 2.4h1l5 3-.5 1c-3.2 1-5-.5-6.9-1.6l-.5.1c-1.6 2.8-3.9 2.7-6.2 2.1L41 37l-1.9-.9-1 .4c-1.4-1-2.5-2-4.4-2.4.3-1.1.6-2.2 1.2-2.8l.9.7c.7-.8 1.5-1.5 2-2.5z"/>
  </g>
  <path fill="#333" stroke="#000" stroke-width=".1" d="M45.4 32.4c.3 1.8.5 3.6 1.6 5.4l1.5-.4-1.9-4.5zm-1.4-.6l-2.8 5.6 1.5.3 1.7-4.3V32zm-.7-.2c-2 1.6-4.1 3-6.4 4.4l.6.3a36 36 0 0 0 6.3-4.5zM57 26.9l-1-.2c-1.5.6-2.2 1.8-2.9 3.1l1.5.6c1-1 2-2 2.4-3.5zm3.2 13l1.2-.6m-1.6 0l1.5-.5m-1.5-.8l1-.4m4.5-7.7l1.7-.8m-2.7-1l1.8-.9m-.8 12h1.6m-1.7-.5H67M65.3 37h1.5m-6.1-.3l-1.4.3.4 1-.2.2.4.4-.2.8.1.4h.3l.5 3.3h1.6l-.9-3.5c0-.3.2-.6-.1-.8l-.3-.4c0-.3.2-.7-.2-.8zM60 26.4c-.1.5-.3 1-.2 1.7h-.4c.1 1.2 0 2.5.7 3.2l1.7.2c-.4-1.2-.7-2.3-1.4-3.4H60c0-.3.1-.6.4-.8zm4-.4c1 .2 2 0 3.3 4.5l.6 1.1-1 .7c.3.7-.1 1-.4 1.4l.3.4v3c.4 1.3.2 1.6 0 2.1v3.9H65v-3.9a5 5 0 0 1 0-2c.3-.4.2-.5.2-.8l.4-5.3c-.7-1.8-1.6-3.3-2.7-4.3zm11.6.6c0 5.6-.7 11.1-1.8 16.5a68.2 68.2 0 0 0 2.8-15.7z"/>
  <path fill="gray" stroke="#000" stroke-width=".1" d="M49.6 37c-2 1.5-2.8 1.5-4.9 1.7l-1-.3c-.8.1-1.6-.5-2.5-1 3.1 3.8 7.8 1.7 8.4-.4z"/>
  <path fill="none" stroke="#000" stroke-width=".1" d="M49 31.8c-1.3-.8.4-2.1 2-3.4 1.5-1.2 2.8-2 4.1-2.5.4 0 .9-.4.9.8m23.2-.5c-1.2-.2-2.4-.7-3.5-1.3M61.9 35.1c1.3.2 2.5-.2 3.6-.8m1.3-.2l4.7.3"/>
  <path fill="#b56884" stroke="#000" stroke-width=".1" d="M52.2 32.3l.4-2.3.4-.1 1.5.5c1.6-.4 3.1-.8 5.6 1l1.7.1c.5 1.2.7 2.3 0 3.6.3-1.8-6.1-6.5-9.6-2.8zm-16.6 2.6c1.4-.3 3-2.2 4.6-4.8l1.5.7c-.9 2.4-2.7 3.9-4.7 5.2-.2-.4-.9-.7-1.4-1zm11-6.3c.5-1 2.5-5.3 7.4-5.5l1 1.2c-2.4-.5-6.7 3.4-7.4 5.7z"/>
  <path fill-opacity=".4" d="M63.1 26.8c.6 1 1 2.1 1.4 3.2l1 .6C65 29 64 28 63 26.8z"/>
  <path fill-opacity=".4" d="M71.2 24.7L64 26.1c.9-.1 1.5.3 2 1.1.3.6.7 1.2.9 2l.4 1.3.6 1.1-.9.7c.2.6 0 1-.5 1.4l.3.4-1.3.2c-1.2.7-2.4.8-3.7.8-.2.9-1 1.2-1.6 1.7l-2.6.5c-.3.9-.8 1.8-.2 2.5l1.8-.6.5-1.2 1-.4c.3.2.3.5.2.8l.3.4.1.5-1.2.8-2.7 3H64l3.2-3.5c1.3-1 2.3-3 4.3-2.4l3.8-5.2.4-5.4-8 2.3-2.3-2.7zm3.6 3.8l-.4 1.3-3.8-.2zm-6.4 3l1 .4-1 .3zm-8.1-3.7l2.6.5h-2.1l.4.8 2 .8-1.7-.3.6 1.6 3.3-.6.3.5-.2 3.2c-1.4.6-2.8 1-3.6.8.5-1 .7-2.1-.1-3.6-.4-1.2-.6-2.4-1.4-3.4h-.2zm-1 .4l-1 2.1.6.3.6-1m-2.3-2.2l.2 2.1-.9-1V30h-.4l-.5-.7 1.3-1.9zM50.5 32l-1.8.1-.5-.5c.8-3.7 5.2-5.8 8-6.2.3.4.7.9.4 1.5l-.7-.2-1-.2c-2.2.6-2 2-2.2 3.4l-.5 2c.2-1.4.3-2.9.2-4.3l-.6.4c-.3 1-.7 1.7-.7 2.7l1.1 1.3v.3c-.3.7-.4 1.4.3 2.2h-1c-.5-.5-.8-1.5-1-2.5z"/>
  <path fill="#934862" d="M82.1 27.2v.6l.5.2-.6.3-.7 1.8 1-1.3.3.7h-.1l-.5-.1.1.9c.7.1 1.5-.1 2-.2L84 29l-.8-1.1zM75.8 25l-.2 1.6.5.3.7-.2 1.6.4v-.4h.3l.6.6-.2.1-.4-.2v.4l.2.3v.5l-.4.2 1.6 1 .5-.4-.4-.3-.2.1.4-.4v-.8l.2-.2-.2-.3V27l.2.3.1.1v.7l.1.6v.5l.1.3v.1l-.2.3.6.2.7-1.3v-.6l.3-.1-.3-.3-.1-.4-.8-.7-2-.5a16 16 0 0 1-3.3-1.2zm1.7-1.5l.2.7h.9l-.4-.9zm2.6-.4h1.3c-.7 1.1-.4 1.9.7 2.4l-1 .3c-1.5-1-.5-1.1-.6-1.7l.1-.6zm-4.3.9l1-.4c.5.4.3.9.5 1.1 0 .1-.6.2-.2.3.6-.2 3.4 1.8.3.7L76 25l.2-.2-.2-.1c.5-.5 0-.3-.1-.4zm-14.4-.3a5 5 0 0 1 2.8-.7l-1 .7c.6 0 1.2-.2 1.8-.8h.6l-.4.6 2.6.3-2.1.7c-.6 0-.7-.3-.5-.7-.5 0-1.1 0-1.2.6l-.2-.2-1-.1c-.1.1-.3.3-.6.2zm-.8 1.5l.4.4.8-.2.8-.2c1-.2 1 0 .4.6-.6.3-1.1 0-1.6-.1l.1.5c-.3 0-.4.2 0 .4l-.3.5 1.3-.5.5.2.3-.2c0-.8.7-1.2 1.3-1.7-.3-.1-.6-.3-.8-.7l-1-.1-.6.2c-.2.4-.5.5-1 .5-.1.2-.3.3-.6.4z"/>
  <path fill="#e090ab" d="M82.4 28.5h-.5v.8l.1.2h.2l.5.2.2-.2zm-2.7.5l.6-.5v-.8l.2-.2-.3-.3.1-.4.2.1v.3l.4.2v.2h-.2l.3.2.1.9-.2.4v.3l.2.1-.4.3-.6-.3.4-.3-.4-.2H80zm-1.3-2v-.4h.3l.5.6-.1.2-.4-.3v.4l.2.3v.6l-.4.1-.2-.2.1-.3.3-.1-.3-.4zm3-4H85c-.6.8-1.2 1.4-1.9 1.9l-1-.8c.8.2 1-.1 1.1-.4-.6-.4-1.2-.5-1.9-.6zm-1 1c0 .3.2.2.2.8l-.3.1-.1.3c0 .3-1.6 1.1-.4.1v-.5c-.2-.7.3-.7.6-.7zm-4.6-.1c.2 0 .6 0 .6.2s0 .3-.2.4l.3.1-.5.4-.3-.2zm-11.6-1l-1 .7c1 0 1.4-.3 1.8-.8zm-.2 1.4c0-.6.8-.6 1.2-.6v.3c-.1.3.2.4.5.4l-1 .4c-.4 0-.6-.2-.7-.5zm-4 1c.5 0 1-.2 1.2-.6.5 0 .8-.1 1-.5-.2-.3-.4-.5-.8-.5zm7.7-2l-1-.4h1.7zm9 .8c.8.1 1.6.2 1.2.8 0 0-.3.3-.7.3L77 25c-.4 0-.2-.2 0-.3-.3-.2-.3-.4-.3-.6z"/>
  <path fill="#c2718c" d="M82.8 27.5l2.6 1.9a4 4 0 0 1-1.6.8l-.2-1.3zm-.8 1.2l-.7 1.4.9.1v-.6h-.1v-.4zm-1-2l1.3.5v.5l.6.3-1 .4v-.3l.3-.1c-.4-.1-.9-.8-1.3-1.4zm-4.9.2l.7-.3 1.7.5v.4l.2.4-.2.1-.2.4zm5.3-3.8c.7.1 1.4 0 1.8.7 0 .5-.4.6-1 .3l1 .8-1.1.5c-1-.3-2-1-.7-2.3zm-1.2 0l.4.4-.1.6c-.3.1-.9 0-.7.7v.5c.2.2.3.1.4 0v-.4h.4l.5.8-1.4.4c-.1-.4-.1-.9-.8-.8v-1c1 0 .7-.7.8-1.2zm-2.7.3l.2.7h1l-.4-.8 1.4-.2c0 .6.3 1.4-.5 1.3l-.3.9c.9-.3.7.5.8.8h-.5c-.2 0-.5 0-.7-.2l-.5-.6-.4.2-.1-.3c.8-.5 0-.8-.5-1l-.1-.6zm-9.7.4l-2.5-.3.3-.7c1.9 0 2 .2 2.1.5l.7-.4-.6.9zM60 25.3l.7-.1.3.4 1.9-.5c.4 0 .7 0 .2.7-.6.2-1.2 0-1.7-.1l.1.4c-.1.1-.4.2 0 .5l-.3.4-.6.3-.5-1c0-.2.2-.6-.2-.8z"/>
  <path fill="none" stroke="#000" stroke-width=".1" d="M59.9 43.1l.4-1.9m-.6-1.8L58.5 43m8.8-12.6l6.3 2.1c0 1.5-1.2 2.3-1.8 3.4-1-.1-1.6-1-2.4-1.7m-4.3.2c-.2 1.2-1 2.4-.3 3.7l-.3.3M63.3 35c-.3 1-.7 2.2-.6 3.3m.2-3.3c-.4 1.2-.9 2.3-.7 3.4m-.7-2.7c-.2.5-.5 1-.4 1.6m-.1.7l.7.8 3 .1.4-.5M59.3 37l-.5 1.1m-.7-.9l-.1 2.4m-.6.2l1.8-.6.5-1.2-.4-1-1.8.3c-.5 1-.8 1.9 0 2.5zM58.5 27l.9 1.3M75.8 24c2.3-1.1 6-.8 9.2-1-1.2 2.2-3.5 2.8-5.8 3.2a12 12 0 0 1 6.1 3.2c-3.3 2.5-6.5-.7-9.7-2.8zm-7.4-1c-2.8-.3-5.4-.4-7 .7-.6.6-1.2 1.1-1.6 1.9.3.2.3.5.2.8l.5.9 2-.7.5.2.3-.2c0-1.6 2.6-2 4.5-2.8 0-.4.3-.6.6-.8zM38 29c-1 1.9-2.3 3-3.6 4.1m38.1-.3a5 5 0 0 1-3 .6"/>
  <path fill="#fff" d="M65.6 12.9c.2 1.2.3 2.6 1.7 2.7 2 0 1.7-1.7 1.5-3-1.4-1.3-2.3-.4-3.2.3zm-7.2 4.2c-.4-1.5.8-2.4 2.6-1.2 1.2 1 1 2-.1 2.4-.7 0-2.2-.2-2.5-1.2z"/>
  <path fill="#834d4a" stroke="#000" stroke-width=".1" d="M59 16.9c-.2-1.3.4-1.6 1.4-1.1.8.4 1.4 1.5.6 2.2-.5.3-1.7.2-2-1.1zm7-3.9c.2-1 2.1-1.6 2.5.2.4 1.7-.3 2-1.2 2.2-1.2 0-1.2-1.2-1.3-2.4z"/>
  <path fill="#df9891" d="M59.7 17.1c-.3 1 .7 1.1 1.2.9a.7.7 0 0 0 0-1.4c-.7 0-1 .3-1.2.5zm6.7-2.2c-.2-1.2 1.1-1.7 1.8-.8.3.4 0 1.3-.7 1.3-.4 0-1-.1-1.1-.5z"/>
  <path fill="#fff" d="M60.6 16.1a.4.4 0 0 1-.4.4.4.4 0 0 1-.3-.4.4.4 0 0 1 .3-.4.4.4 0 0 1 .4.4zm7.4-3.4a.5.5 0 0 1-.5.5.5.5 0 0 1-.4-.5.5.5 0 0 1 .4-.5.5.5 0 0 1 .5.5z"/>
  <path stroke="#000" stroke-linecap="square" stroke-width=".1" d="M67.6 13.5a.3.4 0 0 1-.3.4.3.4 0 0 1-.2-.4.3.4 0 0 1 .2-.4.3.4 0 0 1 .3.4zm-7.3 3a.3.2 74.2 0 1-.1.4.3.2 74.2 0 1-.3-.2.3.2 74.2 0 1 .1-.4.3.2 74.2 0 1 .3.2z"/>
  <g stroke="#000" stroke-width=".1">
    <path d="M61 15.6c-1.5-.5-2.8-.7-2.8 1.2L58 16h-.2c.7-1 1.6-1.6 3.3-.4zm4.7-2.1l-.1-.7c1.7-1.8 3-.5 3.2-.3-.2-1-2.6-1.4-3.6.3z"/>
    <path fill="#fdc5aa" d="M63.5 19.9c-.8.7 0 3 1.8 2.4 1.4-1.3-.9-3-1.8-2.4z"/>
    <path fill="none" d="M61.9 17.7c-.1.3 0 .6.2.6m2-5.8l1.3-2m-7.2 3.4l1.6.5.3.4"/>
  </g>
  <g stroke="#000" stroke-width=".1">
    <path fill="#5c3e3c" d="M56.8 6.9L55 16.2c-.8 3.4-1 6.6 1.4 8.9l-.7-2 .8.3 1.5 2.3-.7-2h.5l2 1.8a7 7 0 0 1 1.6-1.8c-2.3-.8-3-2.6-3.1-4.7l-1-2.5.7.8c-1-2-.7-4-.1-6.2l1.5-.9c.2 1 .2 4 2.5 5.2-.4-.8-1-1.6-1.1-2.4.5.7 1 1.5 1.9 2l.5-.2-1.6-1.8 1.7 1.5c-2-1.8-2-3.2-2.5-4.7l.2-.1c1 1.8 1.5 3.9 4 4.5l.8-.5-2-3.8H65c1 1.2 2.4 1.9 3.8 2.6l-.5-2 1.1 2.2.3-1.6.9 3c.7 2.4 0 4.2-1.1 5.9.6-.7 1.4-1.3 1.7-2.5v2l-1.5 1.4 1.2-.8-1 1.2c1.9-.2 3.8-.2 5 1.5l.1-.3c1.2-.3 2-1.4 2.3-4 .3 1.4.6 2.8 0 4.1.3-.6.8-1 1-1.7V11zm17.4 8.8l.3 2.2-.3.3zM55.6 18l.7 4.6c-1-1.3-1-3-.7-4.6zm17.7.4l.2 1-.7.2zm-12.8 5.8l-.4.5-.7-.5z"/>
    <path fill="#febe98" d="M73.4 18.4l-.6 1.2.7-.1zm.8-2.7v2.5l.3-.3z"/>
  </g>
  <g stroke="#000" stroke-width=".1">
    <path fill="#e192a5" d="M54.9 16.1c-1.7.4-2.7-.3-1.4-4.3C52 3.4 61.2-2 70.2.8c5.5-1.4 11.2 0 16.9 2 2.8.7 5.3.6 7.8.4-3.6 4-9.5 4.6-16.3 3.5l.6 1c4.6 1.2 8.9 3.6 13.3 5.7 2.5 1.4 4.2 4 8.3 3.3-3 3.7-8 2.6-13.1 1.5-1.9-.9-4-2.4-6.3-4.3a8.7 8.7 0 0 0 3 3.8c-2 4-5.2 5.3-9 5a7 7 0 0 0 1.9-3.3c.6.8.6 1.8 0 3.1.7-.7 1.3-1.7.5-4.2-1.9-4.9-7-7.8-8.3-7.8-5.6-.3-12-3.1-14.6 5.6z"/>
    <path fill="#fff" d="M70.2.8c-4.6.4-8.3 1.7-7.3 8l3.4.6c.4-3.1 1.6-6 7-7.2zm9 6.9c4.6 1.2 9 3.5 13.3 5.6 2.9 2.3 5.5 3.8 7.4 3.6-4.2 1.2-6.4-1.5-9-3.2-3.6-1.4-7.4-2.5-10.7-4.2z"/>
    <path fill="none" d="M80.3 9.5l1.2 4.4M73.3 2.2c2.5 1.1 3.8 2.9 5.4 4.5"/>
  </g>
  <g stroke="#000" stroke-width=".1">
    <path fill="#fff" d="M42.9 18.7c1-2.7 3.9-4 6-1.2-.1.6 0 1.5-.6 1.6l-.6-.6c-1.1-.1-1.8.5-2.3 1.3l.4.6c-1 .4-1.9.8-2.7-1l.1-.5z"/>
    <path fill="#de8ea7" d="M42.9 18.7l-2.2-2.3c-.2-.4 0-.2.1-.2-.5-.6-.9-1.4-1-2.2-.2-.8 0-1 .6-.3.5.1 1 .1 2 .5-.1-.4.3-.4.7-.3.8-1.3 1.5.2 2.1 1.2l1.4.8c-2 0-3 1.2-3.7 2.8z"/>
    <path fill="none" d="M43.1 18.2c-.6-.2-1.2-1-1.8-1.8m.7.1c1-1 2.1-1.2 3.3-1.4"/>
  </g>
  <path fill-opacity=".4" d="M46.6 15.9c-1.4.5-2.6 1.1-3 2.2.7 1.5 2.3 0 3.5-.3H49c-.1.5-.1 1-.6 1.2l-.5-.6c-1 0-1.8.4-2.3 1.3l.3.7c-1.2.6-2.1.4-2.7-1l.2-.5-.4-.2c1.2-3.1 3.4-2.7 3.7-2.8zM41.4 17l-.7-.7.2-.1c-.7-.7-2-4-.5-2.5l2 .5 1.2-.3c.4.2.5.5.7.8l.9.2v.2l-.5.1c-1.1-.6-2.3-.9-3.5-1.2l1.7.8c.1.1 0 .3-.2.2l-2-1s-.4 0 0 .2l1.4 1.2c.1.2 0 .5-.2.3l-1.7-1.6c.3.8.7 1.5 1.2 2z"/>
  <g stroke="#000" stroke-width=".1">
    <path fill="#999" d="M32.6 27.9l-1-.1c-1.4.6-2.3-.4-3.4-.8-.6.8-.4 2.4.5 2.7a3 3 0 0 0 1.8 0l1.2-1c.2-.5.6-.6.9-.8z"/>
    <path fill="#de8ea7" d="M30 23.5c.6-.1.2-.5 0-.9L28.7 21h-1.3c-.6.5-.6.8 1 .9z"/>
    <path fill="#7b4d5d" d="M23.3 21.3c.4.3.7.5 1 1.1l.1.7c.6.3.7.6.5 1 1.2.4 1.2.8 1 1.1.5.3.6.5.6.8h-.8l-.8-.8c-.3-.3-.9-.1-1-1-.3-.3-.6-.3-.6-1.2 0-.6-.7-1.2 0-1.7z"/>
    <path fill="none" d="M25.9 25.3h-1m0-1.2h-1m-.6-1h1.1m4.5-2c.1.7-.1.8-.3 1"/>
    <path fill="#7b4d5d" d="M23.1 17.2c-.6-.3-1.2-.4-.7.6"/>
  </g>
</svg>
